<svg xmlns="http://www.w3.org/2000/svg" xmlns:xlink="http://www.w3.org/1999/xlink" width="21" height="23" viewBox="0 0 21 23"><defs><path id="x7woa" d="M858.688 2252.165a.448.448 0 0 1-.437.459H840.75a.45.45 0 0 1-.438-.459v-16.302a.45.45 0 0 1 .438-.459h2.844v1.378c0 .381.294.689.657.689.362 0 .656-.308.656-.689v-1.378h3.938v1.378c0 .381.294.689.657.689.361 0 .655-.308.655-.689v-1.378h3.938v1.378c0 .381.293.689.656.689.362 0 .656-.308.656-.689v-1.378h2.845c.241 0 .437.206.437.459v16.302zm-.437-18.139h-2.845v-1.377c0-.381-.294-.689-.656-.689-.363 0-.656.308-.656.689v1.377h-3.938v-1.377c0-.381-.294-.689-.655-.689-.363 0-.657.308-.657.689v1.377h-3.938v-1.377c0-.381-.294-.689-.656-.689-.363 0-.657.308-.657.689v1.377h-2.843c-.966 0-1.75.822-1.75 1.837v16.302c0 1.015.784 1.836 1.75 1.836h17.501c.966 0 1.749-.821 1.749-1.836v-16.302c0-1.015-.783-1.837-1.749-1.837z"/><path id="x7wob" d="M852.777 2240.22h2.615v2.066h-2.615zm0 3.443h2.615v2.067h-2.615zm0 3.444h2.615v2.056h-2.615zm-4.593-6.887h2.625v2.066h-2.625zm0 3.443h2.625v2.067h-2.625zm0 3.444h2.625v2.056h-2.625zm-4.594 0h2.625v2.056h-2.625zm0-3.444h2.625v2.067h-2.625zm0-3.443h2.625v2.066h-2.625z"/></defs><g><g transform="translate(-839 -2231)"><g><g><use fill="#a9a9a9" xlink:href="#x7woa"/></g><g><use fill="#a9a9a9" xlink:href="#x7wob"/></g></g></g></g></svg>