<svg xmlns="http://www.w3.org/2000/svg" xmlns:xlink="http://www.w3.org/1999/xlink" width="74" height="70" viewBox="0 0 74 70"><defs><path id="lyzua" d="M610.935 1125.501h58.042c-.671-14.142-13.43-25.458-29.021-25.458-15.591 0-28.348 11.316-29.021 25.458zm-2.88 3.043a27.573 27.573 0 0 1-.07-1.87c0-.393.015-.783.032-1.173.664-15.844 14.706-28.501 31.939-28.501 17.234 0 31.275 12.657 31.94 28.501.016.39.032.779.032 1.173 0 .629-.028 1.251-.069 1.87zm5.258 10.921l-6.189-4.714 1.721-2.457 4.468 3.401 5.328-4.057 5.324 4.057 5.325-4.057 5.33 4.057 5.328-4.057 5.329 4.057 5.33-4.057 5.327 4.057 5.331-4.056 5.337 4.057 4.475-3.403 1.72 2.459-6.195 4.712-5.337-4.059-5.33 4.06-5.328-4.059-5.33 4.059-5.329-4.059-5.329 4.059-5.329-4.059-5.326 4.059-5.324-4.059zm60.762 12.062v-3.504c0-.689-.558-1.271-1.218-1.271h-65.802c-.659 0-1.217.583-1.217 1.271v3.504c0 .689.557 1.271 1.217 1.271h65.802c.66 0 1.218-.583 1.218-1.271zm-5.066 5.367v-1.053h-58.107v1.053c0 3.871 3.02 7.021 6.731 7.021h44.647c3.711 0 6.73-3.15 6.73-7.021zm3.849-13.184c2.274 0 4.134 1.94 4.134 4.313v3.504c0 2.372-1.861 4.313-4.135 4.313h-.93v1.053c0 5.536-4.342 10.065-9.648 10.065h-44.646c-5.307 0-9.648-4.529-9.648-10.065v-1.053h-.93c-2.274 0-4.135-1.941-4.135-4.313v-3.504c0-2.373 1.861-4.313 4.135-4.313z"/><path id="lyzub" d="M638.01 1112.26c0-1.121.87-2.03 1.945-2.03 1.074 0 1.945.909 1.945 2.03 0 1.121-.87 2.03-1.945 2.03-1.074 0-1.945-.909-1.945-2.03z"/><path id="lyzuc" d="M630.23 1107.23c0-1.121.87-2.03 1.945-2.03 1.074 0 1.945.909 1.945 2.03 0 1.121-.87 2.03-1.945 2.03-1.074 0-1.945-.909-1.945-2.03z"/><path id="lyzud" d="M645.79 1107.23c0-1.121.87-2.03 1.945-2.03 1.074 0 1.945.909 1.945 2.03 0 1.121-.87 2.03-1.945 2.03-1.074 0-1.945-.909-1.945-2.03z"/></defs><g><g transform="translate(-603 -1097)"><g><use fill="#81b3d2" xlink:href="#lyzua"/></g><g><use fill="#81b3d2" xlink:href="#lyzub"/></g><g><use fill="#81b3d2" xlink:href="#lyzuc"/></g><g><use fill="#81b3d2" xlink:href="#lyzud"/></g></g></g></svg>