<svg xmlns="http://www.w3.org/2000/svg" xmlns:xlink="http://www.w3.org/1999/xlink" width="75" height="72" viewBox="0 0 75 72"><defs><path id="c3vsa" d="M234.597 1140.134h10.115v17.976h-10.115v-17.976zm-2.937 20.899h16v-23.823h-16z"/><path id="c3vsb" d="M256.062 1112.492v-13.568H264v21.47zm-41.065 52.584v-40.542l24.501-24.385L264 1124.534v40.542zm59.782-29.823l2.076-2.068-9.91-9.865V1096h-13.813v13.567L239.503 1096l-37.353 37.185 2.077 2.068 7.833-7.795v37.618h-3.937V1168h63.883v-2.924h-5.06v-37.618z"/><path id="c3vsc" d="M256.935 1147.094h3v-3.909h-3zm-5.938 0h3v-3.909h-3zm5.938-5.962h3v-3.919h-3zm-5.938 0h3v-3.919h-3zm-25.999 5.962h3v-3.909h-3zm-5.938 0h3v-3.909h-3zm5.938-5.962h3v-3.919h-3zm-5.938 0h3v-3.919h-3zm20.59-22.994c2.741 0 4.964 2.214 4.964 4.945 0 2.732-2.223 4.948-4.964 4.948-2.743 0-4.965-2.216-4.965-4.948 0-2.731 2.223-4.945 4.965-4.945zm-7.745 4.945c0 4.261 3.47 7.713 7.75 7.713 4.279 0 7.75-3.452 7.75-7.713 0-4.259-3.471-7.713-7.75-7.713-4.281 0-7.75 3.454-7.75 7.713z"/></defs><g><g transform="translate(-202 -1096)"><g><use fill="#81b3d2" xlink:href="#c3vsa"/></g><g><use fill="#81b3d2" xlink:href="#c3vsb"/></g><g><use fill="#81b3d2" xlink:href="#c3vsc"/></g></g></g></svg>
